<svg width="20" height="20" viewBox="0 0 20 20" fill="none" xmlns="http://www.w3.org/2000/svg">
<path d="M2.42554 9.29786C2.42554 6.24896 2.42554 4.72411 3.37311 3.77735C4.31988 2.82977 5.84473 2.82977 8.89362 2.82977H10.5106C13.5595 2.82977 15.0844 2.82977 16.0312 3.77735C16.9787 4.72411 16.9787 6.24896 16.9787 9.29786V10.9149C16.9787 13.9638 16.9787 15.4886 16.0312 16.4354C15.0844 17.383 13.5595 17.383 10.5106 17.383H8.89362C5.84473 17.383 4.31988 17.383 3.37311 16.4354C2.42554 15.4886 2.42554 13.9638 2.42554 10.9149V9.29786Z" stroke="#606069" stroke-width="1.61702"/>
<path d="M13.3405 7.68084C14.0102 7.68084 14.5532 7.13787 14.5532 6.46808C14.5532 5.79828 14.0102 5.25531 13.3405 5.25531C12.6707 5.25531 12.1277 5.79828 12.1277 6.46808C12.1277 7.13787 12.6707 7.68084 13.3405 7.68084Z" fill="#404040"/>
<path d="M9.70214 12.5319C11.0417 12.5319 12.1277 11.446 12.1277 10.1064C12.1277 8.76679 11.0417 7.68085 9.70214 7.68085C8.36256 7.68085 7.27661 8.76679 7.27661 10.1064C7.27661 11.446 8.36256 12.5319 9.70214 12.5319Z" stroke="#696969" stroke-width="1.61702"/>
</svg>
