<svg width="21" height="21" viewBox="0 0 21 21" fill="none" xmlns="http://www.w3.org/2000/svg">
<g clip-path="url(#clip0_98_443)">
<path d="M6.90675 4.50577C7.44492 4.50577 7.94266 4.54788 8.39745 4.67252C8.85308 4.7559 9.22617 4.92266 9.55715 5.13068C9.88898 5.3387 10.1374 5.63095 10.3025 6.00572C10.4684 6.3805 10.5518 6.8395 10.5518 7.33892C10.5518 7.92257 10.4271 8.42199 10.1374 8.79677C9.88898 9.17239 9.47462 9.50506 8.97772 9.75519C9.6818 9.96406 10.22 10.3388 10.5518 10.8383C10.8828 11.3385 11.09 11.9634 11.09 12.6717C11.09 13.2554 10.9653 13.7548 10.7581 14.1717C10.5518 14.5886 10.22 14.9633 9.84687 15.2135C9.44159 15.4816 8.99359 15.6787 8.52209 15.7963C8.02519 15.9218 7.5283 16.0051 7.0314 16.0051H1.48047V4.50577H6.90675ZM6.57493 9.17155C7.03056 9.17155 7.40365 9.0469 7.69337 8.83888C7.98308 8.63086 8.10773 8.25524 8.10773 7.79708C8.10773 7.54695 8.06562 7.29681 7.98308 7.1309C7.90055 6.96415 7.7759 6.83866 7.61083 6.71401C7.44198 6.61938 7.26048 6.54933 7.07183 6.50599C6.86464 6.46388 6.65831 6.46388 6.40902 6.46388H4.00706V9.17239L6.57493 9.17155ZM6.69957 14.0883C6.94802 14.0883 7.19647 14.0462 7.40365 14.0049C7.61083 13.9628 7.81801 13.8803 7.98308 13.7548C8.15185 13.6329 8.29303 13.4768 8.39745 13.2966C8.47998 13.0886 8.56336 12.8385 8.56336 12.5471C8.56336 11.9634 8.39745 11.5465 8.06646 11.2551C7.73464 11.005 7.27901 10.8804 6.74084 10.8804H4.00706V14.0891L6.69957 14.0883ZM14.6937 14.0462C15.0247 14.3797 15.5216 14.5465 16.1844 14.5465C16.64 14.5465 17.0544 14.4218 17.3854 14.2138C17.7172 13.9637 17.9244 13.7135 18.0069 13.4634H20.0366C19.7048 14.4631 19.2079 15.1714 18.5459 15.6295C17.8823 16.0464 17.0957 16.2965 16.1431 16.2965C15.5337 16.2984 14.9294 16.1853 14.3619 15.963C13.8512 15.7715 13.3959 15.4568 13.0363 15.0467C12.6516 14.6632 12.3673 14.1908 12.2084 13.6714C12.0012 13.1299 11.9178 12.5471 11.9178 11.8801C11.9178 11.2551 12.0012 10.6723 12.2084 10.13C12.4078 9.60782 12.7029 9.12742 13.0784 8.71339C13.4506 8.33861 13.9063 8.00595 14.4032 7.79708C14.9562 7.57479 15.5471 7.46154 16.1431 7.46357C16.8472 7.46357 17.4688 7.58906 18.0069 7.88046C18.5459 8.17186 18.9595 8.50537 19.2904 9.00563C19.6223 9.46379 19.8716 10.0053 20.0366 10.589C20.1192 11.1718 20.1604 11.7554 20.1192 12.4216H14.1134C14.1134 13.0886 14.3619 13.7135 14.6937 14.047M17.3029 9.67266C17.0131 9.38126 16.5575 9.2145 16.0185 9.2145C15.7025 9.20976 15.3899 9.28111 15.1072 9.42252C14.8588 9.54801 14.6937 9.71477 14.5278 9.88152C14.3753 10.0426 14.2745 10.2455 14.2381 10.4643C14.196 10.6732 14.1547 10.8391 14.1547 11.0059H17.8823C17.7998 10.3809 17.5926 9.9649 17.3029 9.67266ZM13.6578 5.29743H18.2966V6.42261H13.6587L13.6578 5.29743Z" fill="#606069"/>
</g>
<defs>
<clipPath id="clip0_98_443">
<rect width="20.2128" height="20.2128" fill="white" transform="translate(0.638306)"/>
</clipPath>
</defs>
</svg>
