<svg width="19" height="20" viewBox="0 0 19 20" fill="none" xmlns="http://www.w3.org/2000/svg">
<path d="M5.78154 4.68262C5.78134 5.09361 5.61787 5.48769 5.32711 5.77816C5.03635 6.06863 4.64211 6.2317 4.23112 6.23149C3.82013 6.23129 3.42605 6.06782 3.13558 5.77706C2.84511 5.4863 2.68205 5.09206 2.68225 4.68107C2.68246 4.27008 2.84592 3.876 3.13668 3.58553C3.42744 3.29507 3.82168 3.132 4.23267 3.1322C4.64366 3.13241 5.03774 3.29587 5.32821 3.58663C5.61868 3.87739 5.78175 4.27163 5.78154 4.68262ZM5.82803 7.379H2.72874V17.0798H5.82803V7.379ZM10.7249 7.379H7.64112V17.0798H10.6939V11.9892C10.6939 9.15335 14.3898 8.88991 14.3898 11.9892V17.0798H17.4504V10.9354C17.4504 6.15479 11.9801 6.33299 10.6939 8.68071L10.7249 7.379Z" fill="#606069"/>
</svg>
