<svg width="19" height="18" viewBox="0 0 19 18" fill="none" xmlns="http://www.w3.org/2000/svg">
<path fill-rule="evenodd" clip-rule="evenodd" d="M7.67958 3.18027C8.58561 4.31678 9.39386 5.52791 10.0957 6.80071C11.3576 6.32879 12.5573 5.70459 13.6679 4.94195C13.0964 4.32599 12.4038 3.83483 11.6335 3.49927C10.8631 3.16372 10.0317 2.99102 9.19149 2.99202C8.66973 2.99202 8.16354 3.05724 7.67958 3.18027ZM14.3498 5.82242C13.1879 6.62624 11.9339 7.28785 10.6145 7.79309C10.8257 8.21999 11.0258 8.65429 11.2133 9.09453C12.5772 8.89336 13.9677 8.96821 15.3021 9.31464C15.3466 8.08065 15.0144 6.8631 14.3498 5.82242ZM15.1628 10.4278C14.0177 10.1089 12.8213 10.0173 11.6409 10.1581C12.1182 11.43 12.4932 12.7381 12.7623 14.0698C13.9827 13.1919 14.8372 11.8955 15.1628 10.4278ZM11.7447 14.6634C11.4715 13.1949 11.0642 11.7545 10.5278 10.3604C8.44155 10.8784 6.6059 12.1178 5.34574 13.8593C6.43288 14.742 7.79113 15.2228 9.19149 15.2207C10.0728 15.2216 10.9438 15.0317 11.7447 14.6642M4.54161 13.0774C5.91947 11.236 7.87812 9.91319 10.1009 9.3228C9.92895 8.93049 9.74681 8.54275 9.55465 8.15996C7.46186 8.81055 5.26651 9.06713 3.08009 8.91665C3.03041 10.4372 3.5518 11.922 4.54161 13.0774ZM3.21498 7.81088C5.1744 7.93847 7.14092 7.71765 9.02325 7.15868C8.31327 5.89579 7.49337 4.69793 6.57306 3.579C5.72695 3.98069 4.98421 4.57104 4.40193 5.30467C3.81966 6.0383 3.41335 6.89567 3.21424 7.81088M6.52711 2.38578C7.37526 2.05024 8.27938 1.87872 9.19149 1.88032C10.2996 1.8795 11.393 2.13393 12.3869 2.62388C13.3808 3.11383 14.2485 3.82612 14.9227 4.70553C15.894 5.96676 16.4197 7.51447 16.4176 9.10638C16.4172 10.4091 16.065 11.6875 15.3981 12.8065C14.7313 13.9256 13.7745 14.8437 12.6289 15.4638C11.5734 16.0355 10.3918 16.3341 9.19149 16.3324C7.34417 16.3349 5.56652 15.6275 4.22589 14.3566C3.40565 13.5828 2.77839 12.6274 2.39455 11.5672C2.01071 10.5069 1.88099 9.37137 2.01582 8.25186C2.17029 6.95867 2.67103 5.73118 3.46519 4.69895C4.25936 3.66672 5.31747 2.86806 6.52785 2.38726" fill="#606069"/>
</svg>
