<svg width="15" height="15" viewBox="0 0 15 15" fill="none" xmlns="http://www.w3.org/2000/svg">
<path d="M2.96798 5.30187L6.92055 2.73114C7.26424 2.50761 7.70402 2.50761 8.04771 2.73114L12.0003 5.30187C12.3017 5.49791 12.4841 5.83708 12.4841 6.20143V11.4963C12.4841 12.0857 12.0152 12.5635 11.4367 12.5635H9.97425C9.73413 12.5635 9.53947 12.3652 9.53947 12.1205V8.64703C9.53947 8.2022 9.18554 7.84159 8.74895 7.84159H6.21931C5.78272 7.84159 5.42879 8.2022 5.42879 8.64703V12.1205C5.42879 12.3652 5.23414 12.5635 4.99401 12.5635H3.53156C2.95308 12.5635 2.48413 12.0857 2.48413 11.4963V6.20143C2.48413 5.83708 2.66656 5.49791 2.96798 5.30187Z" fill="#94949C"/>
</svg>
