<svg width="15" height="15" viewBox="0 0 15 15" fill="none" xmlns="http://www.w3.org/2000/svg">
<path d="M5.45453 9.64204C5.45453 8.5754 6.37031 7.71071 7.49998 7.71071C8.62966 7.71071 9.54544 8.57539 9.54544 9.64204V11.6163C9.54544 12.6829 8.62966 13.5476 7.49998 13.5476C6.37031 13.5476 5.45453 12.6829 5.45453 11.6163V9.64204Z" fill="#434346"/>
<path d="M4 6.12273C4 4.70054 5.22104 3.54762 6.72727 3.54762H8.27273C9.77896 3.54762 11 4.70054 11 6.12273V8.08104C11 9.2927 10.1054 10.3405 8.85135 10.5975L8.11666 10.7481C7.74013 10.8253 7.35056 10.8263 6.9736 10.751L6.16284 10.5891C4.90204 10.3372 4 9.28651 4 8.06971V6.12273Z" fill="#94949C"/>
</svg>
