<svg width="15" height="15" viewBox="0 0 15 15" fill="none" xmlns="http://www.w3.org/2000/svg">
<path d="M6.14948 5.00045C6.14948 4.67583 6.42861 4.39852 6.81022 4.34401L11.5057 3.67335C11.9905 3.6041 12.4331 3.91735 12.4331 4.32979V10.6794C12.4331 11.063 12.0477 11.3673 11.5911 11.3441L6.89565 11.1061C6.47646 11.0849 6.14948 10.7936 6.14948 10.4415V5.00045Z" fill="#434346"/>
<path d="M3.0303 4.71242C3.0303 4.1614 3.5046 3.69085 4.15252 3.59907L9.12417 2.89484C9.94577 2.77846 10.6949 3.30946 10.6949 4.00819V10.992C10.6949 11.6656 9.99604 12.1894 9.19776 12.114L4.22611 11.6445C3.54508 11.5802 3.0303 11.0972 3.0303 10.5225V4.71242Z" fill="#94949C"/>
</svg>
