<svg width="15" height="15" viewBox="0 0 15 15" fill="none" xmlns="http://www.w3.org/2000/svg">
<path d="M8.74991 5.70502C9.09875 5.70502 9.38155 5.98832 9.38155 6.3378L9.38155 11.7916C9.38155 12.6814 8.78746 13.4612 7.93079 13.6959L7.40063 13.8412C7.29153 13.8711 7.17643 13.8711 7.06733 13.8412L6.53717 13.6959C5.6805 13.4612 5.08641 12.6814 5.08641 11.7916L5.08641 6.3378C5.08641 5.98832 5.3692 5.70502 5.71805 5.70502L8.74991 5.70502Z" fill="#94949C"/>
<path d="M3.99998 6.1353C3.99998 5.70894 4.34499 5.36331 4.77058 5.36331H9.69736C10.1229 5.36331 10.468 5.70894 10.468 6.1353V7.31228C10.468 7.73864 10.1229 8.08427 9.69736 8.08427H4.77058C4.34499 8.08427 3.99998 7.73864 3.99998 7.31228V6.1353Z" fill="#E7E7F0"/>
<path d="M5.99594 3.19596C5.99594 3.05966 6.10623 2.94917 6.24228 2.94917H9.51416C9.65021 2.94917 9.7605 3.05966 9.7605 3.19596C9.7605 3.33225 9.65021 3.44274 9.51416 3.44274H6.24228C6.10623 3.44274 5.99594 3.33225 5.99594 3.19596Z" fill="#E7E7F0"/>
<path d="M4.72005 4.14513C4.72005 4.00883 4.83034 3.89834 4.96639 3.89834H7.4803C7.61635 3.89834 7.72664 4.00883 7.72664 4.14513C7.72664 4.28142 7.61635 4.39191 7.4803 4.39191H4.96639C4.83034 4.39191 4.72005 4.28142 4.72005 4.14513Z" fill="#94949C"/>
<path d="M5.0864 2.24678C5.0864 2.11049 5.19669 2 5.33274 2H6.98763C7.12368 2 7.23397 2.11049 7.23397 2.24678C7.23397 2.38308 7.12368 2.49357 6.98763 2.49357H5.33274C5.19669 2.49357 5.0864 2.38308 5.0864 2.24678Z" fill="#94949C"/>
</svg>
